:SAMPLES-PER-SECOND 30
:FRAME-RANGE 1-1086
:FULLY-SPECIFIED
:DEGREES
577
root  30.4089 39.4097 65.411 166.773 87.2703 164.256
RightUpLeg  -3.49237 -9.12746 -3.27703
RightLeg  11.271 -15.8155 0.951005
RightFoot  -9.3146 -0.157159 5.30157
RightToes  -5.8209e-011 0 -3.6325e-017
Spine  4.89904 1.80301 9.08062
Spine1  1.2503 2.81491 -3.91811
HEad  -6.88925 21.5674 -13.2486
LeftShoulder1  1.76867 -1.36248 -30.2971
LeftArm  1.51255 -8.79257 -27.2784
LeftForeArm  -7.89007 -57.6276 -18.7386
LeftHand  0.322295 3.16328 -18.2657
RightShoulder  9.07229 15.5087 41.4827
RightArm  -1.28894 6.12287 10.7591
RightForeArm  -18.1931 63.071 24.8337
RightHand  -0.0254213 -5.26076 18.1595
LeftUpLeg  -28.5554 14.4133 -3.64801
LeftLeg  34.6318 -0.0575593 0.310351
LeftFoot  -8.33445 0.266386 -8.23946
LeftToes  5.72949e-011 5.22586e-011 2.45399e-011
578
root  31.1449 39.5094 65.6584 169.757 85.5219 166.983
RightUpLeg  -1.18106 -9.00147 -3.28038
RightLeg  8.86542 -17.7082 1.64989
RightFoot  -9.4157 -0.151588 5.20837
RightToes  -5.8209e-011 0 -3.6325e-017
Spine  4.24657 1.90558 8.22874
Spine1  1.17646 2.92098 -4.4786
HEad  -6.82575 21.5643 -13.3486
LeftShoulder1  1.75551 -1.33234 -30.2504
LeftArm  1.21534 -9.06495 -27.2209
LeftForeArm  -7.63934 -58.0936 -19.0845
LeftHand  0.296993 3.30582 -18.1773
RightShoulder  9.11554 15.5726 41.5447
RightArm  -1.53217 6.18299 10.6807
RightForeArm  -18.3867 63.0575 24.8331
RightHand  -0.0396556 -5.34758 17.8417
LeftUpLeg  -28.24 16.8514 -5.75377
LeftLeg  25.2779 -0.493647 0.0771498
LeftFoot  -7.31589 0.361357 -9.02366
LeftToes  5.72949e-011 5.22586e-011 2.45399e-011
579
root  31.9072 39.5521 65.835 173.41 83.7532 170.422
RightUpLeg  1.20947 -8.81629 -3.07221
RightLeg  6.39077 -19.6239 2.53438
RightFoot  -9.5552 -0.14662 5.23618
RightToes  -5.8209e-011 0 -3.6325e-017
Spine  3.60097 1.86993 7.53148
Spine1  1.15983 2.89541 -4.81563
HEad  -6.58513 21.6663 -13.467
LeftShoulder1  1.73851 -1.28574 -30.2481
LeftArm  0.857943 -9.16391 -27.0584
LeftForeArm  -7.31132 -58.7669 -19.6069
LeftHand  0.245789 3.59746 -17.9878
RightShoulder  9.10812 15.597 41.4506
RightArm  -1.67562 6.22616 10.7389
RightForeArm  -18.8519 63.0018 24.8036
RightHand  -0.0731935 -5.55159 17.9331
LeftUpLeg  -27.4967 19.4886 -7.88332
LeftLeg  15.7763 -0.98554 -0.202079
LeftFoot  -6.30751 0.458596 -9.55842
LeftToes  5.72949e-011 5.22586e-011 2.45399e-011
580
root  32.7103 39.5305 65.9689 178.121 82.5953 174.824
RightUpLeg  3.31424 -8.34284 -2.37395
RightLeg  4.14366 -21.2059 3.42356
RightFoot  -9.80989 -0.138365 5.36057
RightToes  -5.8209e-011 0 -3.6325e-017
Spine  2.79057 2.04351 7.11999
Spine1  1.21632 3.09163 -5.03262
HEad  -6.27263 21.759 -13.4689
LeftShoulder1  1.7154 -1.23127 -30.1761
LeftArm  0.515139 -8.96519 -26.9195
LeftForeArm  -6.77207 -59.6613 -20.3305
LeftHand  0.189255 3.93239 -17.8592
RightShoulder  9.07896 15.5621 41.3892
RightArm  -1.57195 6.25832 10.6821
RightForeArm  -19.0241 62.9854 24.7978
RightHand  -0.117194 -5.80015 18.6156
LeftUpLeg  -24.6638 9.22206 -2.06833
LeftLeg  6.4607 13.9671 -3.66456
LeftFoot  -5.51869 0.525964 -9.67638
LeftToes  5.72949e-011 5.22586e-011 2.45399e-011
581
root  33.5762 39.4251 66.069 -176.962 81.6856 179.733
RightUpLeg  5.40573 -7.67128 -1.32039
RightLeg  2.69214 -22.5922 3.91122
RightFoot  -10.5156 -0.112123 5.63953
RightToes  -5.8209e-011 0 -3.6325e-017
Spine  2.27746 2.28 6.82677
Spine1  1.24387 3.36053 -5.07882
HEad  -5.88567 21.796 -13.18
LeftShoulder1  1.68292 -1.17995 -29.8747
LeftArm  0.203064 -8.73124 -27.0644
LeftForeArm  -6.27151 -60.3316 -20.8952
LeftHand  0.147585 4.18281 -17.7745
RightShoulder  9.07362 15.5455 41.4022
RightArm  -1.45271 6.14493 10.6433
RightForeArm  -19.5096 63.0722 24.9386
RightHand  -0.172817 -6.0889 19.495
LeftUpLeg  -22.891 5.3021 0.00835369
LeftLeg  -1.41851 21.7511 -5.87553
LeftFoot  -3.83611 0.702914 -10.3465
LeftToes  5.72949e-011 5.22586e-011 2.45399e-011
582
root  34.5074 39.2199 66.0618 -173.102 80.3244 -176.275
RightUpLeg  7.26849 -7.50002 -0.495106
RightLeg  2.53185 -23.7823 4.19914
RightFoot  -11.9066 -0.0499716 6.26104
RightToes  -5.8209e-011 0 -3.6325e-017
Spine  1.82003 2.25877 6.66722
Spine1  1.16195 3.29746 -5.08264
HEad  -5.47365 21.7775 -12.7313
LeftShoulder1  1.64479 -1.10857 -29.599
LeftArm  -0.079696 -8.50187 -27.0397
LeftForeArm  -5.67458 -61.0826 -21.5591
LeftHand  0.103534 4.44636 -17.6051
RightShoulder  9.07821 15.4956 41.543
RightArm  -1.52954 6.29522 10.8797
RightForeArm  -19.986 62.6293 24.4563
RightHand  -0.176594 -6.10952 19.508
LeftUpLeg  -22.1125 4.83686 0.12797
LeftLeg  -5.01761 24.34 -6.77802
LeftFoot  -2.02649 0.869777 -10.5064
LeftToes  5.72949e-011 5.22586e-011 2.45399e-011
583
root  35.5103 38.9663 66.0396 -169.412 79.3013 -172.259
RightUpLeg  9.21935 -7.06022 0.621301
RightLeg  2.73169 -24.8859 4.10289
RightFoot  -13.3956 0.0449136 7.57177
RightToes  -5.8209e-011 0 -3.6325e-017
Spine  1.45393 2.40317 6.26981
Spine1  1.20731 3.37301 -4.82531
HEad  -5.10367 21.6294 -11.9357
LeftShoulder1  1.60616 -1.0359 -29.313
LeftArm  -0.473833 -8.33785 -27.0311
LeftForeArm  -5.16616 -61.6417 -22.0728
LeftHand  0.0778756 4.60806 -17.6665
RightShoulder  9.11025 15.4321 41.8528
RightArm  -1.40827 6.15463 10.8388
RightForeArm  -20.2729 62.6295 24.4782
RightHand  -0.184998 -6.14633 19.7422
LeftUpLeg  -22.0758 5.35878 0.424188
LeftLeg  -3.52068 24.0572 -6.30785
LeftFoot  -1.40152 0.898981 -10.2224
LeftToes  5.72949e-011 5.22586e-011 2.45399e-011
584
root  36.6048 38.6786 65.9327 -167.842 78.3738 -169.985
RightUpLeg  11.569 -7.14259 1.12947
RightLeg  3.51925 -25.1818 3.91909
RightFoot  -14.9802 0.191637 9.22079
RightToes  -5.8209e-011 0 -3.6325e-017
Spine  1.1644 2.52415 5.73312
Spine1  1.60406 3.50045 -4.70965
HEad  -5.00348 21.3304 -10.8656
LeftShoulder1  1.55696 -0.934246 -29.0078
LeftArm  -0.765957 -8.24928 -26.9126
LeftForeArm  -4.63157 -62.2474 -22.6571
LeftHand  0.0440393 4.81556 -17.5875
RightShoulder  9.11876 15.3332 42.1324
RightArm  -1.2644 5.83833 10.9127
RightForeArm  -20.286 62.7716 24.6436
RightHand  -0.169722 -6.07017 19.5296
LeftUpLeg  -21.9734 6.11704 0.468163
LeftLeg  1.0758 21.6909 -4.97717
LeftFoot  -0.847532 0.92334 -9.98195
LeftToes  5.72949e-011 5.22586e-011 2.45399e-011
585
root  37.7609 38.4598 65.7667 -168.6 77.8893 -169.934
RightUpLeg  14.4589 -7.54041 0.765814
RightLeg  3.7184 -24.5605 4.05616
RightFoot  -15.8952 0.330925 11.0122
RightToes  -5.8209e-011 0 -3.6325e-017
Spine  0.74317 2.73803 4.50707
Spine1  2.21613 3.77617 -4.70523
HEad  -4.39441 20.8901 -9.62346
LeftShoulder1  1.53024 -0.87698 -28.8526
LeftArm  -0.938686 -7.70531 -26.3767
LeftForeArm  -3.96435 -63.3203 -23.796
LeftHand  -0.0300697 5.27626 -17.3456
RightShoulder  9.12582 15.1914 42.5121
RightArm  -0.76253 5.39871 10.9456
RightForeArm  -20.2264 62.9905 24.8964
RightHand  -0.157561 -6.01088 19.292
LeftUpLeg  -21.4447 7.04093 -0.250075
LeftLeg  3.70569 20.5026 -4.22473
LeftFoot  3.62393 0.334237 -2.71247
LeftToes  5.72949e-011 5.22586e-011 2.45399e-011
586
root  38.9128 38.3409 65.5207 -173.472 76.8197 -174.433
RightUpLeg  16.4916 -8.39394 -0.744218
RightLeg  5.16776 -23.8061 3.64587
RightFoot  -16.2252 0.480372 13.796
RightToes  -5.8209e-011 0 -3.6325e-017
Spine  0.634302 2.48242 1.88997
Spine1  1.97753 3.44644 -4.30841
HEad  -3.30581 20.4413 -8.49704
LeftShoulder1  1.46054 -0.659854 -29.0004
LeftArm  -0.995116 -6.78401 -25.458
LeftForeArm  -3.25635 -64.3279 -24.9581
LeftHand  -0.0862359 5.63056 -17.3123
RightShoulder  9.11775 14.9369 43.1004
RightArm  0.129004 4.94067 11.1235
RightForeArm  -20.4037 62.9248 24.8321
RightHand  -0.151261 -5.9655 19.5689
LeftUpLeg  -21.5899 6.83989 -2.53539
LeftLeg  7.00674 18.4374 -2.2118
LeftFoot  7.52229 -1.26304 7.31595
LeftToes  5.72949e-011 5.22586e-011 2.45399e-011
587
root  40.0371 38.2338 65.1966 -177.4 75.1312 -178.495
RightUpLeg  16.7394 -13.8578 -4.00343
RightLeg  10.2825 -18.1082 1.9508
RightFoot  -16.3334 0.662744 17.6333
RightToes  -5.8209e-011 0 -3.6325e-017
Spine  0.231282 2.19533 -0.191351
Spine1  1.77571 3.10167 -4.12022
HEad  -2.46457 19.2512 -7.86778
LeftShoulder1  1.45542 -0.597167 -29.4188
LeftArm  -0.773642 -6.38104 -24.7948
LeftForeArm  -3.06369 -64.5932 -25.2815
LeftHand  -0.0963117 5.6954 -17.2583
RightShoulder  8.88754 14.2248 43.744
RightArm  0.626206 4.37218 11.3106
RightForeArm  -20.1925 62.6601 24.5073
RightHand  -0.0933702 -5.6363 19.8907
LeftUpLeg  -22.9219 10.7866 -6.29679
LeftLeg  12.544 11.7946 0.749679
LeftFoot  5.46995 -1.20217 7.89642
LeftToes  5.72949e-011 5.22586e-011 2.45399e-011
588
root  41.0139 38.2758 64.9068 -178.746 74.4034 -179.319
RightUpLeg  17.1433 -25.3793 -8.78365
RightLeg  16.6622 -4.34519 -0.88922
RightFoot  -14.3956 0.512786 22.6555
RightToes  -5.8209e-011 0 -3.6325e-017
Spine  0.763357 2.45399 -0.685253
Spine1  2.19423 3.57873 -5.25881
HEad  -2.29255 17.7045 -7.53898
LeftShoulder1  1.49714 -0.685686 -29.6703
LeftArm  -0.778443 -6.51585 -24.6875
LeftForeArm  -3.31505 -64.3012 -24.9302
LeftHand  -0.0776011 5.57738 -17.24
RightShoulder  8.74992 13.7503 44.2835
RightArm  0.567925 3.23617 11.2671
RightForeArm  -19.4484 63.1364 25.0106
RightHand  -0.0606847 -5.45805 19.7193
LeftUpLeg  -22.1852 14.392 -7.52408
LeftLeg  15.1682 7.32296 1.06019
LeftFoot  3.13383 -0.997154 7.68936
LeftToes  5.72949e-011 5.22586e-011 2.45399e-011
